{
.appVersion = "3151";
.formatVersion = 3;
DisplayStrings = (
c
);
date = "2023-01-09 21:34:34 +0000";
familyName = SayatNovaNew;
fontMaster = (
{
guides = (
{
locked = 1;
pos = (302,0);
},
{
locked = 1;
pos = (302,-13);
},
{
locked = 1;
pos = (272,500);
},
{
locked = 1;
pos = (272,513);
},
{
angle = 90;
locked = 1;
pos = (93,330);
},
{
angle = 90;
locked = 1;
pos = (160,320);
},
{
angle = 90;
locked = 1;
pos = (427,330);
},
{
angle = 90;
locked = 1;
pos = (494,320);
},
{
locked = 1;
pos = (550,314);
},
{
locked = 1;
pos = (297,-22);
},
{
locked = 1;
pos = (349,380);
},
{
locked = 1;
pos = (348,431);
},
{
angle = 90;
locked = 1;
pos = (692,380);
},
{
angle = 90;
pos = (255,-14);
}
);
id = m01;
metricValues = (
{
over = 16;
pos = 800;
},
{
over = 16;
pos = 700;
},
{
over = 16;
pos = 500;
},
{
over = -16;
},
{
over = -16;
pos = -200;
},
{
over = -16;
}
);
name = Regular;
visible = 1;
}
);
glyphs = (
{
glyphname = A;
lastChange = "2023-08-27 13:03:48 +0000";
layers = (
{
anchors = (
{
name = ogonek;
pos = (695,20);
},
{
name = top2;
pos = (354,818);
}
);
hints = (
{
name = _corner.origin;
options = 1;
origin = (1,3);
scale = (-1.2,1);
type = Corner;
},
{
name = _corner.origin;
origin = (1,2);
scale = (0.8,0.9);
type = Corner;
},
{
name = _corner.origin;
options = 1;
origin = (1,7);
scale = (-0.6,1);
type = Corner;
},
{
name = _corner.origin;
origin = (1,6);
scale = (1.2,1);
type = Corner;
}
);
layerId = m01;
shapes = (
{
closed = 1;
nodes = (
(170,314,l),
(170,263,l),
(531,263,l),
(531,314,l)
);
},
{
closed = 1;
nodes = (
(361,814,l),
(347,814,l),
(28,0,l),
(85,0,l),
(341,672,l),
(329,672,l),
(606,0,l),
(704,0,l)
);
}
);
width = 734;
}
);
unicode = 65;
},
{
color = 7;
glyphname = B;
lastChange = "2023-08-27 13:04:28 +0000";
layers = (
{
hints = (
{
name = _corner.origin;
origin = (1,14);
type = Corner;
},
{
name = _corner.origin;
options = 1;
origin = (1,13);
scale = (-1,1);
type = Corner;
}
);
layerId = m01;
shapes = (
{
closed = 1;
nodes = (
(513,405,o),
(580,322,o),
(580,221,cs),
(580,132,o),
(513,50,o),
(412,50,c),
(236,50,l),
(197,50,o),
(185,82,o),
(183,112,cs),
(181,181,o),
(177,620,o),
(183,693,cs),
(185,723,o),
(193,755,o),
(248,755,c),
(370,755,l),
(472,755,o),
(535,700,o),
(535,617,cs),
(535,513,o),
(486,456,o),
(370,456,c),
(151,456,l),
(151,405,l),
(370,405,l)
);
},
{
closed = 1;
nodes = (
(444,0,l),
(563,0,o),
(670,96,o),
(674,221,cs),
(677,322,o),
(595,415,o),
(498,434,c),
(571,464,o),
(627,529,o),
(627,617,cs),
(627,730,o),
(508,800,o),
(399,800,c),
(102,800,l),
(102,0,l)
);
}
);
width = 692;
}
);
metricLeft = H;
unicode = 66;
},
{
glyphname = C;
lastChange = "2023-08-27 13:03:48 +0000";
layers = (
{
anchors = (
{
name = bottom;
pos = (383,-6);
},
{
name = top2;
pos = (399,828);
}
);
layerId = m01;
shapes = (
{
closed = 1;
nodes = (
(662,215,l),
(648,213,l),
(620,112,o),
(539,33,o),
(419,33,cs),
(247,33,o),
(123,163,o),
(123,399,cs),
(123,643,o),
(240,759,o),
(389,759,cs),
(485,759,o),
(571,692,o),
(599,617,c),
(614,613,l),
(677,684,l),
(631,759,o),
(527,814,o),
(403,814,cs),
(176,814,o),
(18,584,o),
(20,396,cs),
(24,125,o),
(203,-22,o),
(414,-22,cs),
(527,-22,o),
(620,14,o),
(685,86,c)
);
}
);
width = 695;
}
);
metricLeft = O;
unicode = 67;
},
{
color = 6;
glyphname = D;
lastChange = "2023-08-27 13:03:56 +0000";
layers = (
{
anchors = (
{
name = top2;
pos = (333,818);
}
);
hints = (
{
name = _corner.origin;
options = 1;
origin = (1,13);
scale = (-1,1);
type = Corner;
},
{
name = _corner.origin;
origin = (1,14);
type = Corner;
}
);
layerId = m01;
shapes = (
{
closed = 1;
nodes = (
(197,50,o),
(185,82,o),
(183,112,cs),
(181,181,o),
(177,620,o),
(183,693,cs),
(185,723,o),
(193,755,o),
(248,755,c),
(333,755,l),
(421,755,o),
(491,721,o),
(541,667,cs),
(602,603,o),
(635,509,o),
(632,380,cs),
(631,320,o),
(605,199,o),
(550,135,cs),
(502,79,o),
(439,50,o),
(358,50,c),
(236,50,l)
);
},
{
closed = 1;
nodes = (
(358,0,l),
(448,0,o),
(553,33,o),
(615,101,cs),
(683,175,o),
(730,280,o),
(732,380,cs),
(736,543,o),
(672,653,o),
(577,723,cs),
(509,772,o),
(424,800,o),
(333,800,c),
(102,800,l),
(102,0,l)
);
}
);
width = 752;
}
);
metricLeft = H;
metricRight = O;
unicode = 68;
},
{
color = 6;
glyphname = E;
lastChange = "2023-08-27 13:04:00 +0000";
layers = (
{
anchors = (
{
name = ogonek;
pos = (654,15);
},
{
name = top2;
pos = (373,818);
}
);
guides = (
{
angle = -86.5249;
pos = (609,800);
},
{
angle = 268.442;
pos = (623,154);
}
);
hints = (
{
name = _corner.origin;
options = 1;
origin = (0,28);
scale = (-1,1);
type = Corner;
},
{
name = _corner.origin;
origin = (0,29);
type = Corner;
},
{
name = _corner.origin;
options = 1;
origin = (1,0);
scale = (-1,0.8);
type = Corner;
},
{
name = _corner.origin;
origin = (1,3);
scale = (1,0.8);
type = Corner;
}
);
layerId = m01;
shapes = (
{
closed = 1;
nodes = (
(658,0,l),
(663,154,l),
(649,159,l),
(642,142,o),
(609,93,o),
(584,73,cs),
(558,54,o),
(526,50,o),
(486,50,c),
(236,50,l),
(197,50,o),
(185,82,o),
(183,112,cs),
(181,181,o),
(177,620,o),
(183,693,cs),
(185,723,o),
(193,755,o),
(248,755,c),
(457,755,l),
(497,755,o),
(529,751,o),
(555,731,cs),
(580,712,o),
(613,663,o),
(620,646,c),
(634,651,l),
(629,800,l),
(102,800,l),
(102,0,l)
);
},
{
closed = 1;
nodes = (
(550,431,l),
(151,431,l),
(151,380,l),
(550,380,l)
);
}
);
width = 673;
}
);
metricLeft = H;
unicode = 69;
},
{
color = 6;
glyphname = F;
lastChange = "2023-08-27 13:04:00 +0000";
layers = (
{
hints = (
{
name = _corner.origin;
options = 1;
origin = (0,0);
scale = (-1,0.8);
type = Corner;
},
{
name = _corner.origin;
origin = (0,3);
scale = (1,0.8);
type = Corner;
},
{
name = _corner.origin;
options = 1;
origin = (1,13);
scale = (-1,1);
type = Corner;
},
{
name = _corner.origin;
origin = (1,14);
type = Corner;
},
{
name = _corner.origin;
options = 1;
origin = (1,15);
scale = (-1,1);
type = Corner;
}
);
layerId = m01;
shapes = (
{
closed = 1;
nodes = (
(550,431,l),
(151,431,l),
(151,380,l),
(550,380,l)
);
},
{
closed = 1;
nodes = (
(183,693,l),
(185,723,o),
(193,755,o),
(248,755,c),
(470,755,l),
(510,755,o),
(542,751,o),
(568,731,cs),
(593,712,o),
(626,663,o),
(633,646,c),
(647,651,l),
(637,800,l),
(102,800,l),
(102,0,l),
(183,0,l)
);
}
);
width = 657;
}
);
metricLeft = H;
unicode = 70;
},
{
glyphname = G;
lastChange = "2023-08-27 13:03:48 +0000";
layers = (
{
anchors = (
{
name = bottom2;
pos = (387,0);
},
{
name = top2;
pos = (378,828);
}
);
guides = (
{
angle = 90;
pos = (668,361);
},
{
pos = (599,609);
}
);
hints = (
{
name = _corner.origin;
origin = (0,28);
scale = (0.8,0.8);
type = Corner;
},
{
name = _corner.origin;
options = 1;
origin = (0,0);
scale = (-1.2,1);
type = Corner;
}
);
layerId = m01;
shapes = (
{
closed = 1;
nodes = (
(594,380,l),
(594,125,l),
(570,78,o),
(516,33,o),
(412,33,cs),
(232,33,o),
(123,169,o),
(119,399,cs),
(117,557,o),
(199,761,o),
(398,761,cs),
(494,761,o),
(570,692,o),
(598,617,c),
(613,613,l),
(676,684,l),
(620,749,o),
(536,814,o),
(412,814,cs),
(180,814,o),
(17,590,o),
(20,396,cs),
(23,131,o),
(197,-22,o),
(407,-22,cs),
(536,-22,o),
(613,18,o),
(676,90,c),
(676,380,l)
);
}
);
width = 744;
}
);
metricLeft = O;
unicode = 71;
},
{
glyphname = H;
lastChange = "2023-08-27 13:03:48 +0000";
layers = (
{
anchors = (
{
name = top2;
pos = (411,828);
}
);
guides = (
{
angle = 90;
pos = (725,174);
}
);
hints = (
{
name = _corner.origin;
origin = (0,0);
type = Corner;
},
{
name = _corner.origin;
options = 1;
origin = (0,1);
scale = (-1,1);
type = Corner;
},
{
name = _corner.origin;
origin = (2,0);
type = Corner;
},
{
name = _corner.origin;
options = 1;
origin = (2,1);
scale = (-1,1);
type = Corner;
},
{
name = _corner.origin;
origin = (0,2);
type = Corner;
},
{
name = _corner.origin;
origin = (2,2);
type = Corner;
},
{
name = _corner.origin;
options = 1;
origin = (2,3);
scale = (-1,1);
type = Corner;
},
{
name = _corner.origin;
options = 1;
origin = (0,3);
scale = (-1,1);
type = Corner;
}
);
layerId = m01;
shapes = (
{
closed = 1;
nodes = (
(102,0,l),
(182,0,l),
(182,800,l),
(102,800,l)
);
},
{
closed = 1;
nodes = (
(150,380,l),
(696,380,l),
(696,431,l),
(150,431,l)
);
},
{
closed = 1;
nodes = (
(640,0,l),
(720,0,l),
(720,800,l),
(640,800,l)
);
}
);
width = 822;
}
);
unicode = 72;
},
{
glyphname = I;
lastChange = "2023-08-27 13:03:48 +0000";
layers = (
{
anchors = (
{
name = ogonek;
pos = (266,16);
},
{
name = top2;
pos = (142,818);
}
);
hints = (
{
name = _corner.origin;
origin = (0,2);
type = Corner;
},
{
name = _corner.origin;
options = 1;
origin = (0,3);
scale = (-1,1);
type = Corner;
},
{
name = _corner.origin;
options = 1;
origin = (0,1);
scale = (-1,1);
type = Corner;
},
{
name = _corner.origin;
origin = (0,0);
type = Corner;
}
);
layerId = m01;
shapes = (
{
closed = 1;
nodes = (
(182,800,l),
(102,800,l),
(102,0,l),
(182,0,l)
);
}
);
width = 284;
}
);
metricLeft = H;
metricRight = H;
unicode = 73;
},
{
glyphname = J;
lastChange = "2023-08-27 13:03:48 +0000";
layers = (
{
anchors = (
{
name = top2;
pos = (173,818);
}
);
hints = (
{
name = _corner.origin;
options = 1;
origin = (0,16);
scale = (-1,1);
type = Corner;
},
{
name = _corner.origin;
origin = (0,15);
type = Corner;
}
);
layerId = m01;
shapes = (
{
closed = 1;
nodes = (
(213,730,o),
(212,145,o),
(209,70,cs),
(207,9,o),
(187,-45,o),
(157,-82,cs),
(133,-114,o),
(71,-171,o),
(32,-190,c),
(30,-171,l),
(103,-91,o),
(125,-17,o),
(130,70,cs),
(134,145,o),
(133,730,o),
(133,800,c),
(213,800,l)
);
}
);
width = 315;
}
);
metricLeft = H;
metricRight = H;
unicode = 74;
},
{
color = 6;
glyphname = K;
lastChange = "2023-08-27 13:04:05 +0000";
layers = (
{
anchors = (
{
name = bottom2;
pos = (354,0);
},
{
name = top2;
pos = (353,818);
}
);
guides = (
{
angle = -88.3431;
pos = (663,800);
},
{
pos = (264,8);
},
{
pos = (229,792);
},
{
pos = (356,10);
},
{
angle = 90;
pos = (333,233);
}
);
hints = (
{
name = _corner.origin;
origin = (2,2);
type = Corner;
},
{
name = _corner.origin;
options = 1;
origin = (2,3);
scale = (-1,1);
type = Corner;
},
{
name = _corner.origin;
origin = (2,0);
type = Corner;
},
{
name = _corner.origin;
options = 1;
origin = (2,1);
scale = (-1,1);
type = Corner;
},
{
name = _corner.origin;
origin = (0,4);
scale = (0.9,1.1);
type = Corner;
},
{
name = _corner.origin;
options = 1;
origin = (0,5);
scale = (-0.8,1);
type = Corner;
},
{
name = _corner.origin;
options = 1;
origin = (1,3);
scale = (-1,1.1);
type = Corner;
},
{
name = _corner.origin;
origin = (1,2);
scale = (0.9,1);
type = Corner;
}
);
layerId = m01;
shapes = (
{
closed = 1;
nodes = (
(508,733,o),
(269,492,o),
(166,391,c),
(166,310,l),
(645,800,l),
(565,800,l)
);
},
{
closed = 1;
nodes = (
(301,480,l),
(252,427,l),
(587,0,l),
(681,0,l)
);
},
{
closed = 1;
nodes = (
(182,800,l),
(102,800,l),
(102,0,l),
(182,0,l)
);
}
);
width = 763;
}
);
metricLeft = H;
unicode = 75;
},
{
color = 6;
glyphname = L;
lastChange = "2023-08-27 13:04:14 +0000";
layers = (
{
anchors = (
{
name = bottom2;
pos = (378,12);
},
{
name = top2;
pos = (142,818);
}
);
hints = (
{
name = _corner.origin;
origin = (0,13);
type = Corner;
},
{
name = _corner.origin;
options = 1;
origin = (0,14);
scale = (-1,1);
type = Corner;
},
{
name = _corner.origin;
origin = (0,15);
type = Corner;
}
);
layerId = m01;
shapes = (
{
closed = 1;
nodes = (
(636,0,l),
(650,154,l),
(636,159,l),
(629,142,o),
(596,93,o),
(571,73,cs),
(545,54,o),
(513,50,o),
(473,50,c),
(239,50,l),
(200,50,o),
(185,86,o),
(184,117,c),
(182,800,l),
(102,800,l),
(102,0,l)
);
}
);
width = 660;
}
);
metricLeft = H;
unicode = 76;
},
{
color = 6;
glyphname = Lslash;
lastChange = "2023-08-27 13:04:14 +0000";
layers = (
{
guides = (
{
angle = 208.6423;
pos = (453,513);
},
{
angle = 208.6423;
pos = (453,458);
},
{
angle = 90;
pos = (433,493);
},
{
angle = 90;
pos = (182,711);
}
);
hints = (
{
name = _corner.origin;
origin = (2,15);
type = Corner;
},
{
name = _corner.origin;
origin = (2,13);
type = Corner;
},
{
name = _corner.origin;
options = 1;
origin = (2,14);
scale = (-1,1);
type = Corner;
}
);
layerId = m01;
shapes = (
{
closed = 1;
nodes = (
(30,222,l),
(151,288,l),
(151,343,l),
(30,277,l)
);
},
{
closed = 1;
nodes = (
(171,305,l),
(433,447,l),
(433,502,l),
(171,360,l)
);
},
{
closed = 1;
nodes = (
(636,0,l),
(650,154,l),
(636,159,l),
(629,142,o),
(596,93,o),
(571,73,cs),
(545,54,o),
(513,50,o),
(473,50,c),
(239,50,l),
(200,50,o),
(185,86,o),
(184,117,c),
(182,800,l),
(102,800,l),
(102,0,l)
);
}
);
width = 660;
}
);
metricLeft = L;
unicode = 321;
},
{
glyphname = M;
lastChange = "2023-08-27 13:03:48 +0000";
layers = (
{
hints = (
{
name = _corner.origin;
origin = (0,14);
type = Corner;
},
{
name = _corner.origin;
options = 1;
origin = (0,29);
scale = (-1,1);
type = Corner;
},
{
name = _corner.origin;
options = 1;
origin = (0,11);
scale = (-1,1.05);
type = Corner;
},
{
name = _corner.origin;
origin = (0,10);
type = Corner;
},
{
name = _corner.origin;
options = 1;
origin = (0,33);
scale = (-1,1);
type = Corner;
},
{
name = _corner.origin;
origin = (0,32);
type = Corner;
}
);
layerId = m01;
shapes = (
{
closed = 1;
nodes = (
(161,75,o),
(174,634,o),
(180,694,c),
(174,694,l),
(481,-14,l),
(495,-14,l),
(781,694,l),
(775,694,l),
(781,634,o),
(799,75,o),
(798,0,c),
(879,0,l),
(873,78,o),
(852,747,o),
(858,800,c),
(754,801,l),
(754,792,o),
(750,765,o),
(747,753,cs),
(733,704,o),
(631,436,o),
(501,128,c),
(513,128,l),
(424,336,o),
(252,704,o),
(237,753,cs),
(234,764,o),
(230,792,o),
(230,801,c),
(127,800,l),
(132,747,o),
(109,75,o),
(102,0,c),
(161,0,l)
);
}
);
width = 981;
}
);
metricLeft = H;
metricRight = H;
unicode = 77;
},
{
glyphname = N;
lastChange = "2023-08-27 13:03:48 +0000";
layers = (
{
anchors = (
{
name = bottom2;
pos = (441,12);
},
{
name = top2;
pos = (441,828);
}
);
guides = (
{
angle = 90;
pos = (46,42);
},
{
angle = 90;
pos = (421,913);
}
);
hints = (
{
name = _corner.origin;
origin = (0,13);
type = Corner;
},
{
name = _corner.origin;
options = 1;
origin = (0,14);
scale = (-1,1);
type = Corner;
},
{
name = _corner.origin;
options = 1;
origin = (0,12);
scale = (-1,1);
type = Corner;
},
{
name = _corner.origin;
options = 1;
origin = (0,5);
scale = (-1,1);
type = Corner;
},
{
name = _corner.origin;
origin = (0,4);
type = Corner;
}
);
layerId = m01;
shapes = (
{
closed = 1;
nodes = (
(157,701,l),
(139,701,l),
(721,-14,l),
(741,-14,l),
(741,800,l),
(686,800,l),
(686,140,l),
(719,140,l),
(215,758,l),
(203,773,o),
(200,785,o),
(198,800,c),
(102,800,l),
(102,0,l),
(157,0,l)
);
}
);
width = 843;
}
);
metricLeft = H;
metricRight = H;
unicode = 78;
},
{
glyphname = O;
lastChange = "2023-08-27 13:03:48 +0000";
layers = (
{
anchors = (
{
name = top2;
pos = (376,828);
}
);
layerId = m01;
shapes = (
{
closed = 1;
nodes = (
(756,666,o),
(596,813,o),
(396,813,cs),
(159,813,o),
(20,583,o),
(20,368,cs),
(20,125,o),
(190,-22,o),
(380,-22,cs),
(628,-22,o),
(756,208,o),
(756,422,cs)
);
},
{
closed = 1;
nodes = (
(661,165,o),
(540,33,o),
(396,33,cs),
(225,33,o),
(115,240,o),
(115,422,cs),
(115,626,o),
(247,758,o),
(380,758,cs),
(561,758,o),
(661,550,o),
(661,368,cs)
);
}
);
width = 776;
}
);
unicode = 79;
},
{
color = 7;
glyphname = P;
lastChange = "2023-08-27 13:04:25 +0000";
layers = (
{
hints = (
{
name = _corner.origin;
options = 1;
origin = (0,20);
scale = (-1,1);
type = Corner;
},
{
name = _corner.origin;
origin = (0,21);
type = Corner;
},
{
name = _corner.origin;
options = 1;
origin = (0,22);
scale = (-1,1);
type = Corner;
}
);
layerId = m01;
shapes = (
{
closed = 1;
nodes = (
(183,693,l),
(185,723,o),
(193,755,o),
(248,755,cs),
(356,755,l),
(464,755,o),
(539,676,o),
(539,571,cs),
(539,478,o),
(480,380,o),
(342,380,cs),
(155,380,l),
(155,329,l),
(362,329,l),
(555,329,o),
(631,472,o),
(631,571,cs),
(631,709,o),
(515,800,o),
(369,800,c),
(102,800,l),
(102,0,l),
(183,0,l)
);
}
);
width = 651;
}
);
metricLeft = H;
metricRight = O;
unicode = 80;
},
{
glyphname = Q;
lastChange = "2023-08-27 13:03:48 +0000";
layers = (
{
guides = (
{
angle = 90;
locked = 1;
pos = (772,439);
},
{
angle = 90;
locked = 1;
pos = (21,354);
}
);
layerId = m01;
shapes = (
{
closed = 1;
nodes = (
(947,-172,o),
(828,-153,o),
(690,-83,cs),
(596,-35,o),
(490,9,o),
(340,39,c),
(318,-8,l),
(464,-42,o),
(532,-77,o),
(644,-136,cs),
(796,-216,o),
(954,-222,o),
(1099,-165,c),
(1090,-138,l)
);
},
{
closed = 1;
nodes = (
(792,666,o),
(624,813,o),
(414,813,cs),
(165,813,o),
(20,583,o),
(20,368,cs),
(20,125,o),
(198,-22,o),
(398,-22,cs),
(658,-22,o),
(792,208,o),
(792,422,cs)
);
},
{
closed = 1;
nodes = (
(696,165,o),
(565,33,o),
(414,33,cs),
(235,33,o),
(116,235,o),
(116,422,cs),
(116,626,o),
(258,758,o),
(398,758,cs),
(587,758,o),
(696,555,o),
(696,368,cs)
);
}
);
width = 849;
}
);
metricLeft = O;
unicode = 81;
},
{
color = 7;
glyphname = R;
lastChange = "2023-08-27 13:04:22 +0000";
layers = (
{
anchors = (
{
name = bottom2;
pos = (374,0);
},
{
name = top2;
pos = (333,818);
}
);
guides = (
{
angle = 90;
locked = 1;
pos = (631,571);
},
{
angle = 90;
pos = (333,621);
}
);
hints = (
{
name = _corner.origin;
options = 1;
origin = (1,20);
scale = (-1,1);
type = Corner;
},
{
name = _corner.origin;
origin = (1,21);
type = Corner;
},
{
name = _corner.origin;
options = 1;
origin = (1,22);
scale = (-1,1);
type = Corner;
},
{
name = _corner.origin;
origin = (0,2);
scale = (0.9,1);
type = Corner;
},
{
name = _corner.origin;
options = 1;
origin = (0,3);
scale = (-0.8,1);
type = Corner;
}
);
layerId = m01;
shapes = (
{
closed = 1;
nodes = (
(410,375,l),
(351,332,l),
(593,0,l),
(685,0,l)
);
},
{
closed = 1;
nodes = (
(183,693,l),
(185,723,o),
(193,755,o),
(248,755,cs),
(356,755,l),
(464,755,o),
(539,676,o),
(539,571,cs),
(539,478,o),
(480,380,o),
(342,380,cs),
(155,380,l),
(155,329,l),
(362,329,l),
(555,329,o),
(631,472,o),
(631,571,cs),
(631,709,o),
(515,800,o),
(369,800,c),
(102,800,l),
(102,0,l),
(183,0,l)
);
}
);
width = 722;
}
);
metricLeft = H;
unicode = 82;
},
{
color = 6;
glyphname = S;
lastChange = "2023-08-27 13:04:32 +0000";
layers = (
{
anchors = (
{
name = bottom;
pos = (248,0);
},
{
name = bottom2;
pos = (305,0);
},
{
name = top2;
pos = (288,818);
},
{
name = top3;
pos = (281,815);
}
);
guides = (
{
locked = 1;
pos = (282,811);
},
{
pos = (282,811);
},
{
locked = 1;
pos = (303,-22);
},
{
locked = 1;
pos = (303,360);
},
{
locked = 1;
pos = (329,31);
},
{
locked = 1;
pos = (1064,31);
},
{
locked = 1;
pos = (243,762);
},
{
angle = 90;
pos = (281,811);
}
);
layerId = m01;
shapes = (
{
closed = 1;
nodes = (
(204,484,o),
(92,521,o),
(92,621,cs),
(92,716,o),
(191,759,o),
(281,759,cs),
(381,759,o),
(483,697,o),
(534,597,c),
(549,600,l),
(549,757,l),
(493,782,o),
(390,811,o),
(298,811,cs),
(158,811,o),
(20,734,o),
(20,588,cs),
(20,442,o),
(156,402,o),
(297,360,cs),
(469,311,o),
(525,266,o),
(525,183,cs),
(525,96,o),
(462,36,o),
(338,36,cs),
(215,36,o),
(105,88,o),
(40,177,c),
(22,173,l),
(22,25,l),
(116,-5,o),
(223,-22,o),
(297,-22,cs),
(465,-22,o),
(598,64,o),
(598,213,cs),
(598,332,o),
(512,396,o),
(346,445,cs)
);
}
);
width = 608;
}
);
unicode = 83;
},
{
glyphname = T;
lastChange = "2023-08-27 13:03:48 +0000";
layers = (
{
anchors = (
{
name = bottom;
pos = (314,12);
},
{
name = bottom2;
pos = (356,12);
},
{
name = top2;
pos = (357,828);
}
);
guides = (
{
angle = 90;
pos = (724,588);
},
{
angle = 90;
pos = (694,593);
},
{
angle = 90;
pos = (20,544);
},
{
angle = 90;
pos = (-10,549);
},
{
angle = 90;
locked = 1;
pos = (314,769);
},
{
angle = 90;
locked = 1;
pos = (400,769);
}
);
hints = (
{
name = _corner.origin;
origin = (1,3);
type = Corner;
},
{
name = _corner.origin;
options = 1;
origin = (1,0);
scale = (-1,1);
type = Corner;
}
);
layerId = m01;
shapes = (
{
closed = 1;
nodes = (
(517,755,ls),
(557,755,o),
(589,751,o),
(615,731,cs),
(640,712,o),
(673,663,o),
(680,646,c),
(694,651,l),
(685,800,l),
(29,800,l),
(20,651,l),
(34,646,l),
(41,663,o),
(74,712,o),
(99,731,cs),
(125,751,o),
(157,755,o),
(197,755,cs)
);
},
{
closed = 1;
nodes = (
(397,0,l),
(397,768,l),
(317,768,l),
(317,0,l)
);
}
);
width = 714;
}
);
unicode = 84;
},
{
glyphname = U;
lastChange = "2023-08-27 13:03:48 +0000";
layers = (
{
anchors = (
{
name = ogonek;
pos = (565,1);
},
{
name = top2;
pos = (424,828);
}
);
hints = (
{
name = _corner.origin;
origin = (0,16);
type = Corner;
},
{
name = _corner.origin;
options = 1;
origin = (0,17);
scale = (-1,1);
type = Corner;
},
{
name = _corner.origin;
origin = (0,7);
type = Corner;
},
{
name = _corner.origin;
options = 1;
origin = (0,8);
scale = (-1,1);
type = Corner;
}
);
layerId = m01;
shapes = (
{
closed = 1;
nodes = (
(669,331,l),
(667,141,o),
(586,31,o),
(426,31,cs),
(288,31,o),
(190,141,o),
(192,331,c),
(192,800,l),
(102,800,l),
(102,331,l),
(103,141,o),
(177,-23,o),
(421,-23,cs),
(643,-23,o),
(718,141,o),
(721,331,c),
(721,800,l),
(669,800,l)
);
}
);
width = 796;
}
);
metricLeft = H;
unicode = 85;
},
{
glyphname = V;
lastChange = "2023-08-27 13:03:48 +0000";
layers = (
{
guides = (
{
locked = 1;
pos = (316,800);
}
);
hints = (
{
name = _corner.origin;
origin = (0,2);
scale = (1.2,1);
type = Corner;
},
{
name = _corner.origin;
options = 1;
origin = (0,3);
scale = (-0.6,1);
type = Corner;
},
{
name = _corner.origin;
options = 1;
origin = (0,7);
scale = (-1.2,1);
type = Corner;
},
{
name = _corner.origin;
origin = (0,6);
scale = (0.8,0.9);
type = Corner;
}
);
layerId = m01;
shapes = (
{
closed = 1;
nodes = (
(406,125,l),
(429,125,l),
(150,800,l),
(53,800,l),
(379,-14,l),
(405,-14,l),
(706,800,l),
(652,800,l)
);
}
);
width = 764;
}
);
unicode = 86;
},
{
glyphname = W;
lastChange = "2023-08-27 13:03:48 +0000";
layers = (
{
anchors = (
{
name = top2;
pos = (540,828);
}
);
hints = (
{
name = _corner.origin;
origin = (0,8);
scale = (1.2,1);
type = Corner;
},
{
name = _corner.origin;
options = 1;
origin = (0,9);
scale = (-0.6,1);
type = Corner;
},
{
name = _corner.origin;
origin = (1,4);
scale = (0.8,0.9);
type = Corner;
},
{
name = _corner.origin;
options = 1;
origin = (1,5);
scale = (-1,1);
type = Corner;
},
{
name = _corner.origin;
origin = (1,8);
scale = (1.4,1.4);
type = Corner;
},
{
name = _corner.origin;
options = 1;
origin = (1,9);
scale = (-0.8,1);
type = Corner;
}
);
layerId = m01;
shapes = (
{
closed = 1;
nodes = (
(353,-14,l),
(360,-14,o),
(361,-14,o),
(367,-14,c),
(576,545,l),
(550,612,l),
(365,128,l),
(385,128,l),
(135,800,l),
(31,800,l)
);
},
{
closed = 1;
nodes = (
(762,-14,l),
(769,-14,o),
(770,-14,o),
(776,-14,c),
(1081,800,l),
(1029,800,l),
(777,128,l),
(794,128,l),
(550,800,l),
(446,800,l)
);
}
);
width = 1114;
}
);
unicode = 87;
},
{
color = 6;
glyphname = X;
lastChange = "2023-08-27 13:04:46 +0000";
layers = (
{
guides = (
{
angle = 90;
pos = (15,716);
},
{
angle = 90;
pos = (745,236);
},
{
angle = 56.7254;
pos = (581,715);
}
);
hints = (
{
name = _corner.origin;
options = 1;
origin = (1,3);
scale = (-1,1.2);
type = Corner;
},
{
name = _corner.origin;
origin = (1,2);
scale = (0.8,0.9);
type = Corner;
},
{
name = _corner.origin;
options = 1;
origin = (0,3);
scale = (-1,1.2);
type = Corner;
},
{
name = _corner.origin;
origin = (0,2);
scale = (0.8,0.9);
type = Corner;
},
{
name = _corner.origin;
origin = (2,0);
scale = (1,1.2);
type = Corner;
},
{
name = _corner.origin;
options = 1;
origin = (2,1);
scale = (-0.6,1);
type = Corner;
},
{
name = _corner.origin;
origin = (2,2);
scale = (1,1.2);
type = Corner;
},
{
name = _corner.origin;
options = 1;
origin = (2,3);
scale = (-0.6,1);
type = Corner;
}
);
layerId = m01;
shapes = (
{
closed = 1;
nodes = (
(393,429,l),
(424,388,l),
(708,800,l),
(637,800,l)
);
},
{
closed = 1;
nodes = (
(379,371,l),
(348,412,l),
(64,0,l),
(135,0,l)
);
},
{
closed = 1;
nodes = (
(605,0,l),
(712,0,l),
(153,800,l),
(46,800,l)
);
}
);
width = 776;
}
);
metricRight = K;
unicode = 88;
},
{
glyphname = Y;
lastChange = "2023-08-27 13:03:48 +0000";
layers = (
{
anchors = (
{
name = top2;
pos = (367,828);
}
);
guides = (
{
angle = 90;
locked = 1;
pos = (333,269);
},
{
angle = 90;
locked = 1;
pos = (412,269);
}
);
hints = (
{
name = _corner.origin;
options = 1;
origin = (0,9);
scale = (-1,1);
type = Corner;
},
{
name = _corner.origin;
origin = (0,8);
type = Corner;
},
{
name = _corner.origin;
origin = (0,1);
scale = (0.8,0.9);
type = Corner;
},
{
name = _corner.origin;
options = 1;
origin = (0,2);
scale = (-1.2,1);
type = Corner;
},
{
name = _corner.origin;
origin = (0,5);
scale = (1.2,1);
type = Corner;
},
{
name = _corner.origin;
options = 1;
origin = (0,6);
scale = (-0.6,1);
type = Corner;
}
);
layerId = m01;
shapes = (
{
closed = 1;
nodes = (
(412,269,l),
(685,800,l),
(633,800,l),
(387,314,l),
(407,314,l),
(160,800,l),
(63,800,l),
(332,269,l),
(332,0,l),
(412,0,l)
);
}
);
width = 763;
}
);
metricLeft = T;
metricRight = T;
unicode = 89;
},
{
glyphname = Z;
lastChange = "2023-08-27 13:03:48 +0000";
layers = (
{
anchors = (
{
name = top2;
pos = (342,818);
}
);
layerId = m01;
shapes = (
{
closed = 1;
nodes = (
(18,17,l),
(18,0,l),
(682,0,l),
(687,154,l),
(673,159,l),
(666,142,o),
(633,93,o),
(608,73,cs),
(582,54,o),
(550,50,o),
(510,50,c),
(152,50,l),
(630,716,ls),
(653,748,o),
(662,768,o),
(683,785,c),
(683,800,l),
(52,800,l),
(47,651,l),
(61,646,l),
(68,663,o),
(101,712,o),
(126,731,cs),
(152,751,o),
(184,755,o),
(224,755,c),
(547,755,l)
);
}
);
width = 705;
}
);
unicode = 90;
},
{
glyphname = a;
lastChange = "2023-08-28 20:17:30 +0000";
layers = (
{
anchors = (
{
name = bottom;
pos = (252,0);
},
{
name = ogonek;
pos = (535,26);
},
{
name = top;
pos = (252,500);
}
);
guides = (
{
angle = 90;
pos = (-41,98);
},
{
angle = 270;
pos = (365,359);
}
);
layerId = m01;
shapes = (
{
closed = 1;
nodes = (
(328,88,o),
(252,45,o),
(197,45,cs),
(144,45,o),
(102,81,o),
(102,139,cs),
(102,223,o),
(189,245,o),
(229,250,c),
(395,269,l),
(395,303,l),
(382,303,o),
(286,296,o),
(217,289,cs),
(137,281,o),
(20,240,o),
(20,128,cs),
(20,52,o),
(75,-12,o),
(168,-14,cs),
(224,-15,o),
(269,5,o),
(305,28,cs),
(342,51,o),
(368,76,o),
(393,100,c),
(393,160,l)
);
},
{
closed = 1;
nodes = (
(368,42,o),
(402,-13,o),
(473,-13,cs),
(522,-13,o),
(550,16,o),
(564,67,c),
(546,76,l),
(534,50,o),
(515,37,o),
(494,37,cs),
(466,37,o),
(443,54,o),
(443,116,c),
(443,336,l),
(443,405,o),
(416,455,o),
(365,485,cs),
(333,504,o),
(299,514,o),
(242,514,cs),
(160,514,o),
(91,468,o),
(53,397,c),
(84,378,l),
(127,435,o),
(172,465,o),
(236,465,cs),
(313,465,o),
(368,419,o),
(368,338,c),
(368,125,l)
);
}
);
width = 576;
}
);
unicode = 97;
},
{
glyphname = b;
lastChange = "2023-08-28 20:05:46 +0000";
layers = (
{
guides = (
{
angle = 90;
pos = (60,802);
},
{
angle = 90;
pos = (163,120);
},
{
angle = 214.2408;
pos = (96,98);
}
);
layerId = m01;
shapes = (
{
closed = 1;
nodes = (
(129,79,o),
(187,-15,o),
(310,-15,cs),
(463,-15,o),
(545,127,o),
(545,277,cs),
(545,425,o),
(438,519,o),
(310,519,cs),
(217,519,o),
(143,469,o),
(115,353,c),
(146,331,l),
(164,418,o),
(219,476,o),
(308,476,cs),
(409,476,o),
(463,399,o),
(463,274,cs),
(463,157,o),
(417,35,o),
(308,35,cs),
(214,35,o),
(172,118,o),
(160,184,c),
(115,148,l)
);
},
{
closed = 1;
nodes = (
(91,-8,l),
(102,-13,l),
(165,65,l),
(164,706,l),
(164,742,o),
(166,775,o),
(173,816,c),
(154,816,l),
(17,803,l),
(13,788,l),
(50,781,o),
(91,749,o),
(91,722,c)
);
}
);
width = 578;
}
);
metricLeft = n;
metricRight = o;
unicode = 98;
},
{
glyphname = c;
lastChange = "2023-08-28 20:33:18 +0000";
layers = (
{
anchors = (
{
name = bottom;
pos = (243,0);
},
{
name = top;
pos = (265,500);
}
);
layerId = m01;
shapes = (
{
closed = 1;
nodes = (
(360,-24,o),
(410,8,o),
(453,71,c),
(428,87,l),
(393,47,o),
(354,26,o),
(289,26,cs),
(195,26,o),
(112,96,o),
(112,248,cs),
(112,404,o),
(190,465,o),
(270,465,cs),
(331,465,o),
(387,414,o),
(410,365,c),
(460,408,l),
(429,460,o),
(358,513,o),
(278,513,cs),
(133,513,o),
(32,366,o),
(33,246,cs),
(36,72,o),
(150,-24,o),
(280,-24,cs)
);
}
);
width = 493;
}
);
metricLeft = o;
metricRight = o;
unicode = 99;
},
{
glyphname = d;
lastChange = "2023-08-28 20:07:56 +0000";
layers = (
{
anchors = (
{
name = top;
pos = (298,500);
},
{
name = top3;
pos = (559,500);
}
);
guides = (
{
angle = 90;
pos = (33,225);
},
{
angle = 90;
pos = (409,368);
}
);
hints = (
{
name = _corner.origin2;
options = 1;
origin = (1,1);
scale = (1.1,-1);
type = Corner;
}
);
layerId = m01;
shapes = (
{
closed = 1;
nodes = (
(390,72,o),
(341,28,o),
(270,28,cs),
(169,28,o),
(115,105,o),
(115,230,cs),
(115,347,o),
(169,469,o),
(294,469,cs),
(341,469,o),
(398,452,o),
(432,414,c),
(456,443,l),
(420,483,o),
(368,519,o),
(298,519,cs),
(142,519,o),
(33,377,o),
(33,227,cs),
(33,79,o),
(140,-15,o),
(258,-15,cs),
(341,-15,o),
(399,28,o),
(425,73,c),
(425,121,l)
);
},
{
closed = 1;
nodes = (
(409,-5,l),
(483,0,l),
(482,706,l),
(482,742,o),
(484,775,o),
(491,816,c),
(472,816,l),
(335,803,l),
(331,788,l),
(368,781,o),
(409,749,o),
(409,722,c)
);
}
);
width = 585;
}
);
metricLeft = o;
metricRight = n;
unicode = 100;
},
{
glyphname = e;
lastChange = "2023-08-27 13:02:28 +0000";
layers = (
{
anchors = (
{
name = bottom;
pos = (258,0);
},
{
name = ogonek;
pos = (471,10);
},
{
name = top;
pos = (294,500);
}
);
layerId = m01;
shapes = (
{
closed = 1;
nodes = (
(438,314,l),
(100,314,l),
(88,276,l),
(512,276,l),
(512,422,o),
(398,519,o),
(277,519,cs),
(129,519,o),
(35,371,o),
(33,238,cs),
(31,73,o),
(153,-22,o),
(287,-22,cs),
(373,-22,o),
(428,4,o),
(480,64,c),
(460,84,l),
(417,44,o),
(363,26,o),
(306,26,cs),
(213,26,o),
(117,98,o),
(115,241,cs),
(113,349,o),
(169,472,o),
(277,471,cs),
(370,470,o),
(417,388,o),
(417,290,c)
);
}
);
width = 545;
}
);
metricLeft = o;
metricRight = o;
unicode = 101;
},
{
color = 6;
glyphname = f;
lastChange = "2023-08-28 20:30:31 +0000";
layers = (
{
hints = (
{
name = _corner.origin;
origin = (1,3);
scale = (1.1,1);
type = Corner;
},
{
name = _corner.origin;
options = 1;
origin = (1,4);
scale = (-1.1,1);
type = Corner;
}
);
layerId = m01;
shapes = (
{
closed = 1;
nodes = (
(271,475,l),
(271,513,l),
(18,513,l),
(18,475,l)
);
},
{
closed = 1;
nodes = (
(86,608,o),
(89,558,o),
(92,493,c),
(92,0,l),
(166,0,l),
(166,493,l),
(143,559,o),
(128,627,o),
(140,675,cs),
(148,706,o),
(171,727,o),
(204,733,cs),
(237,739,o),
(267,729,o),
(290,713,c),
(336,763,l),
(331,774,l),
(299,797,o),
(253,807,o),
(207,795,cs),
(130,775,o),
(104,711,o),
(96,664,cs)
);
}
);
width = 336;
}
);
metricLeft = n;
unicode = 102;
},
{
glyphname = g;
lastChange = "2023-08-28 20:08:28 +0000";
layers = (
{
anchors = (
{
name = top;
pos = (249,500);
}
);
layerId = m01;
shapes = (
{
closed = 1;
nodes = (
(145,36,o),
(13,17,o),
(13,-102,cs),
(13,-200,o),
(125,-217,o),
(268,-206,cs),
(404,-196,o),
(502,-149,o),
(502,-42,cs),
(502,21,o),
(434,73,o),
(250,70,c),
(187,70,l),
(145,72,o),
(98,79,o),
(98,133,cs),
(98,162,o),
(115,193,o),
(140,214,c),
(122,244,l),
(86,211,o),
(42,162,o),
(43,102,cs),
(44,21,o),
(115,-4,o),
(207,-4,c),
(268,-4,l),
(382,-4,o),
(434,-12,o),
(434,-63,cs),
(434,-123,o),
(354,-158,o),
(252,-168,cs),
(154,-178,o),
(73,-149,o),
(73,-91,cs),
(73,-13,o),
(188,18,o),
(234,31,c),
(230,44,l)
);
},
{
closed = 1;
nodes = (
(453,447,o),
(357,513,o),
(250,513,cs),
(113,513,o),
(34,411,o),
(34,315,cs),
(34,208,o),
(130,141,o),
(239,141,cs),
(374,141,o),
(453,244,o),
(453,339,cs)
);
},
{
closed = 1;
nodes = (
(374,240,o),
(327,181,o),
(248,181,cs),
(148,181,o),
(114,269,o),
(114,338,cs),
(114,415,o),
(158,473,o),
(239,473,cs),
(340,473,o),
(374,387,o),
(374,318,cs)
);
},
{
closed = 1;
nodes = (
(495,473,l),
(493,500,l),
(318,500,l),
(392,431,l)
);
}
);
width = 515;
}
);
unicode = 103;
},
{
glyphname = h;
lastChange = "2023-08-27 13:11:35 +0000";
layers = (
{
anchors = (
{
name = top2;
pos = (330,555);
}
);
guides = (
{
angle = 90;
pos = (62,802);
},
{
pos = (173,814);
}
);
hints = (
{
name = _corner.origin2;
options = 1;
origin = (0,0);
scale = (-1.2,1);
type = Corner;
},
{
name = _corner.origin2;
origin = (0,11);
scale = (1.1,1);
type = Corner;
},
{
name = _corner.origin2;
origin = (1,13);
scale = (-1.2,-1);
type = Corner;
},
{
name = _corner.origin;
options = 1;
origin = (1,14);
scale = (1.1,-1);
type = Corner;
}
);
layerId = m01;
shapes = (
{
closed = 1;
nodes = (
(166,0,l),
(165,704,l),
(165,740,o),
(167,773,o),
(174,814,c),
(155,814,l),
(24,801,l),
(19,786,l),
(60,775,o),
(92,756,o),
(92,720,c),
(92,0,l)
);
},
{
closed = 1;
nodes = (
(489,430,o),
(448,507,o),
(329,507,cs),
(208,507,o),
(143,387,o),
(114,334,c),
(136,312,l),
(154,355,o),
(206,439,o),
(296,439,cs),
(401,439,o),
(416,368,o),
(415,268,c),
(413,0,l),
(490,0,l),
(489,268,l)
);
}
);
width = 561;
}
);
metricLeft = n;
unicode = 104;
},
{
glyphname = idotless;
lastChange = "2023-08-27 13:19:54 +0000";
layers = (
{
anchors = (
{
name = bottom;
pos = (129,0);
},
{
name = ogonek;
pos = (236,10);
},
{
name = top;
pos = (120,500);
}
);
hints = (
{
name = _corner.origin2;
options = 1;
origin = (0,0);
scale = (-1.1,1);
type = Corner;
},
{
name = _corner.origin2;
origin = (0,11);
scale = (1.1,1);
type = Corner;
}
);
layerId = m01;
shapes = (
{
closed = 1;
nodes = (
(166,0,l),
(165,390,l),
(165,426,o),
(167,459,o),
(174,500,c),
(155,500,l),
(18,487,l),
(14,472,l),
(51,465,o),
(92,443,o),
(92,406,c),
(92,0,l)
);
}
);
width = 288;
}
);
metricLeft = n;
unicode = 305;
},
{
glyphname = jdotless;
lastChange = "2023-08-28 20:05:37 +0000";
layers = (
{
anchors = (
{
name = top;
pos = (131,500);
}
);
guides = (
{
angle = 90;
pos = (129,608);
}
);
layerId = m01;
shapes = (
{
closed = 1;
nodes = (
(176,426,o),
(178,459,o),
(185,500,c),
(166,500,l),
(29,487,l),
(25,472,l),
(62,465,o),
(103,443,o),
(103,406,c),
(103,0,l),
(103,-59,o),
(66,-129,o),
(23,-176,c),
(37,-190,l),
(74,-167,o),
(108,-142,o),
(135,-107,cs),
(163,-69,o),
(177,-27,o),
(177,33,c),
(176,390,l)
);
}
);
width = 228;
}
);
metricRight = idotless;
unicode = 567;
},
{
glyphname = k;
lastChange = "2023-08-28 20:32:21 +0000";
layers = (
{
anchors = (
{
name = bottom2;
pos = (279,0);
},
{
name = top2;
pos = (411,500);
}
);
guides = (
{
pos = (593,549);
},
{
pos = (258,70);
},
{
angle = 90;
pos = (64,802);
},
{
angle = 90;
pos = (166,90);
}
);
hints = (
{
name = _corner.origin2;
origin = (2,0);
scale = (1.1,1);
type = Corner;
},
{
name = _corner.origin2;
options = 1;
origin = (2,1);
scale = (1.1,-1);
type = Corner;
}
);
layerId = m01;
shapes = (
{
closed = 1;
nodes = (
(152,256,l),
(152,204,l),
(417,439,l),
(442,461,o),
(474,479,o),
(505,487,c),
(502,500,l),
(353,500,l),
(368,474,o),
(369,448,o),
(336,418,c)
);
},
{
closed = 1;
nodes = (
(291,340,l),
(237,290,l),
(378,83,l),
(397,57,o),
(391,23,o),
(371,9,c),
(375,1,l),
(542,1,l),
(546,9,l),
(520,24,o),
(495,44,o),
(478,70,c)
);
},
{
closed = 1;
nodes = (
(92,0,l),
(166,0,l),
(165,706,l),
(165,742,o),
(167,775,o),
(174,816,c),
(155,816,l),
(24,803,l),
(20,788,l),
(57,781,o),
(92,749,o),
(92,722,c)
);
}
);
width = 559;
}
);
metricLeft = n;
unicode = 107;
},
{
glyphname = l;
lastChange = "2023-08-28 20:05:58 +0000";
layers = (
{
anchors = (
{
name = bottom2;
pos = (129,0);
},
{
name = top2;
pos = (123,841);
},
{
name = top3;
pos = (241,500);
}
);
guides = (
{
pos = (224,8);
},
{
angle = 90;
pos = (63,802);
},
{
pos = (174,816);
},
{
angle = 90;
pos = (92,706);
}
);
hints = (
{
name = _corner.origin2;
options = 1;
origin = (0,1);
scale = (1.1,-1);
type = Corner;
},
{
name = _corner.origin2;
origin = (0,0);
scale = (1.1,1);
type = Corner;
}
);
layerId = m01;
shapes = (
{
closed = 1;
nodes = (
(92,0,l),
(166,0,l),
(165,706,l),
(165,742,o),
(167,775,o),
(174,816,c),
(155,816,l),
(18,803,l),
(14,788,l),
(51,781,o),
(92,749,o),
(92,722,cs)
);
}
);
width = 269;
}
);
metricLeft = n;
metricRight = d;
unicode = 108;
},
{
glyphname = lslash;
lastChange = "2023-08-28 20:06:07 +0000";
layers = (
{
guides = (
{
angle = 90;
pos = (88,706);
}
);
hints = (
{
name = _corner.origin2;
origin = (2,0);
scale = (1.1,1);
type = Corner;
},
{
name = _corner.origin2;
options = 1;
origin = (2,1);
scale = (1.1,-1);
type = Corner;
}
);
layerId = m01;
shapes = (
{
closed = 1;
nodes = (
(23,222,l),
(117,273,l),
(117,328,l),
(23,277,l)
);
},
{
closed = 1;
nodes = (
(137,290,l),
(253,353,l),
(253,408,l),
(137,345,l)
);
},
{
closed = 1;
nodes = (
(92,0,l),
(166,0,l),
(165,706,l),
(165,742,o),
(167,775,o),
(174,816,c),
(155,816,l),
(18,803,l),
(14,788,l),
(51,781,o),
(92,749,o),
(92,722,cs)
);
}
);
width = 277;
}
);
metricRight = d;
unicode = 322;
},
{
glyphname = m;
lastChange = "2023-08-27 13:02:28 +0000";
layers = (
{
guides = (
{
angle = 90;
pos = (13,12);
}
);
hints = (
{
name = _corner.origin2;
options = 1;
origin = (0,0);
scale = (-1.2,1);
type = Corner;
},
{
name = _corner.origin2;
origin = (0,11);
scale = (1.1,1);
type = Corner;
},
{
name = _corner.origin2;
origin = (1,13);
scale = (-1.2,-1);
type = Corner;
},
{
name = _corner.origin;
options = 1;
origin = (1,14);
scale = (1.1,-1);
type = Corner;
},
{
name = _corner.origin2;
origin = (2,13);
scale = (-1.2,-1);
type = Corner;
},
{
name = _corner.origin;
options = 1;
origin = (2,14);
scale = (1.1,-1);
type = Corner;
}
);
layerId = m01;
shapes = (
{
closed = 1;
nodes = (
(166,0,l),
(165,390,l),
(165,426,o),
(167,459,o),
(174,500,c),
(155,500,l),
(24,487,l),
(19,472,l),
(60,461,o),
(92,442,o),
(92,406,c),
(92,0,l)
);
},
{
closed = 1;
nodes = (
(489,421,o),
(448,507,o),
(329,507,cs),
(208,507,o),
(143,387,o),
(114,334,c),
(136,312,l),
(154,355,o),
(206,439,o),
(296,439,cs),
(401,439,o),
(416,359,o),
(415,268,c),
(413,0,l),
(490,0,l),
(489,268,l)
);
},
{
closed = 1;
nodes = (
(810,421,o),
(769,507,o),
(650,507,cs),
(529,507,o),
(464,387,o),
(435,334,c),
(457,312,l),
(475,355,o),
(527,439,o),
(617,439,cs),
(722,439,o),
(737,359,o),
(736,268,c),
(734,0,l),
(811,0,l),
(810,268,l)
);
}
);
width = 914;
}
);
metricLeft = n;
metricRight = n;
unicode = 109;
},
{
glyphname = n;
lastChange = "2023-08-27 13:02:28 +0000";
layers = (
{
anchors = (
{
name = bottom2;
pos = (291,0);
},
{
name = top;
pos = (312,500);
}
);
guides = (
{
angle = 90;
pos = (13,14);
}
);
hints = (
{
name = _corner.origin2;
origin = (0,11);
scale = (1.1,1);
type = Corner;
},
{
name = _corner.origin2;
options = 1;
origin = (0,0);
scale = (-1.2,1);
type = Corner;
},
{
name = _corner.origin2;
origin = (1,13);
scale = (-1.2,-1);
type = Corner;
},
{
name = _corner.origin;
options = 1;
origin = (1,14);
scale = (1.1,-1);
type = Corner;
}
);
layerId = m01;
shapes = (
{
closed = 1;
nodes = (
(166,0,l),
(165,390,l),
(165,426,o),
(167,459,o),
(174,500,c),
(155,500,l),
(24,487,l),
(19,472,l),
(60,461,o),
(92,442,o),
(92,406,c),
(92,0,l)
);
},
{
closed = 1;
nodes = (
(489,421,o),
(448,507,o),
(329,507,cs),
(208,507,o),
(143,387,o),
(114,334,c),
(136,312,l),
(154,355,o),
(206,439,o),
(296,439,cs),
(401,439,o),
(416,359,o),
(415,268,c),
(413,0,l),
(490,0,l),
(489,268,l)
);
}
);
width = 593;
}
);
unicode = 110;
},
{
glyphname = o;
lastChange = "2023-08-27 13:02:28 +0000";
layers = (
{
anchors = (
{
name = bottom;
pos = (291,0);
},
{
name = center;
pos = (281,250);
},
{
name = ogonek;
pos = (491,10);
},
{
name = top;
pos = (289,500);
},
{
name = topright;
pos = (526,500);
}
);
guides = (
{
angle = 90;
pos = (277,441);
}
);
layerId = m01;
shapes = (
{
closed = 1;
nodes = (
(528,422,o),
(416,519,o),
(286,519,cs),
(134,519,o),
(33,368,o),
(33,226,cs),
(33,66,o),
(155,-31,o),
(275,-31,cs),
(437,-31,o),
(528,120,o),
(528,262,cs)
);
},
{
closed = 1;
nodes = (
(443,92,o),
(379,17,o),
(286,17,cs),
(178,17,o),
(118,142,o),
(118,262,cs),
(118,396,o),
(192,471,o),
(275,471,cs),
(393,471,o),
(443,346,o),
(443,226,cs)
);
}
);
width = 561;
}
);
unicode = 111;
},
{
color = 6;
glyphname = p;
lastChange = "2023-08-27 18:23:38 +0000";
layers = (
{
guides = (
{
pos = (259,-302);
},
{
angle = 90;
pos = (77,353);
}
);
layerId = m01;
shapes = (
{
closed = 1;
nodes = (
(125,14,o),
(183,-16,o),
(251,-16,cs),
(398,-16,o),
(507,126,o),
(507,269,cs),
(507,412,o),
(400,518,o),
(269,518,cs),
(179,518,o),
(105,468,o),
(77,352,c),
(108,330,l),
(126,417,o),
(181,475,o),
(266,475,cs),
(371,475,o),
(425,386,o),
(425,276,cs),
(425,156,o),
(368,34,o),
(246,34,cs),
(200,34,o),
(150,51,o),
(116,89,c),
(80,53,l)
);
},
{
closed = 1;
nodes = (
(127,404,l),
(127,440,o),
(129,473,o),
(136,514,c),
(117,514,l),
(25,500,l),
(43,470,o),
(53,440,o),
(54,404,c),
(54,-128,l),
(53,-166,o),
(37,-193,o),
(13,-209,c),
(17,-217,l),
(165,-217,l),
(169,-209,l),
(145,-193,o),
(129,-166,o),
(128,-128,c)
);
}
);
width = 540;
}
);
metricLeft = n;
metricRight = o;
unicode = 112;
},
{
color = 6;
glyphname = q;
lastChange = "2023-08-28 20:06:12 +0000";
layers = (
{
guides = (
{
pos = (318,-216);
},
{
angle = 90;
pos = (33,225);
},
{
angle = 90;
pos = (411,270);
}
);
layerId = m01;
shapes = (
{
closed = 1;
nodes = (
(484,395,l),
(485,437,o),
(496,462,o),
(511,485,c),
(480,488,o),
(453,492,o),
(419,501,cs),
(383,511,o),
(348,519,o),
(308,519,cs),
(142,519,o),
(33,377,o),
(33,227,cs),
(33,79,o),
(140,-15,o),
(268,-15,cs),
(361,-15,o),
(435,35,o),
(463,151,c),
(432,173,l),
(414,86,o),
(359,28,o),
(270,28,cs),
(169,28,o),
(115,105,o),
(115,230,cs),
(115,347,o),
(169,469,o),
(294,469,cs),
(338,469,o),
(379,454,o),
(408,437,c),
(408,-128,l),
(407,-166,o),
(391,-193,o),
(367,-209,c),
(371,-217,l),
(519,-217,l),
(523,-209,l),
(499,-193,o),
(483,-166,o),
(482,-128,c)
);
}
);
width = 547;
}
);
metricLeft = o;
metricRight = d;
unicode = 113;
},
{
glyphname = r;
lastChange = "2023-08-27 18:23:52 +0000";
layers = (
{
anchors = (
{
name = bottom2;
pos = (129,0);
},
{
name = top;
pos = (213,480);
}
);
guides = (
{
angle = 90;
pos = (165,267);
}
);
hints = (
{
name = _corner.origin2;
options = 1;
origin = (1,0);
scale = (-1.1,1);
type = Corner;
},
{
name = _corner.origin2;
origin = (1,11);
scale = (1.1,1);
type = Corner;
}
);
layerId = m01;
shapes = (
{
closed = 1;
nodes = (
(347,511,o),
(301,518,o),
(256,496,cs),
(184,461,o),
(151,367,o),
(133,311,c),
(151,302,l),
(170,364,o),
(214,414,o),
(262,431,cs),
(294,443,o),
(325,439,o),
(350,427,c),
(388,483,l),
(382,493,l)
);
},
{
closed = 1;
nodes = (
(166,0,l),
(165,390,l),
(165,426,o),
(167,459,o),
(174,500,c),
(155,500,l),
(18,487,l),
(14,472,l),
(51,465,o),
(92,433,o),
(92,406,c),
(92,0,l)
);
}
);
width = 388;
}
);
metricLeft = n;
unicode = 114;
},
{
color = 6;
glyphname = s;
lastChange = "2023-08-28 20:06:16 +0000";
layers = (
{
anchors = (
{
name = bottom;
pos = (134,0);
},
{
name = bottom2;
pos = (216,0);
},
{
name = top;
pos = (195,500);
}
);
layerId = m01;
shapes = (
{
closed = 1;
nodes = (
(129,320,o),
(69,344,o),
(69,396,cs),
(69,444,o),
(120,471,o),
(179,471,cs),
(244,471,o),
(305,440,o),
(343,380,c),
(353,382,l),
(353,484,l),
(317,500,o),
(250,519,o),
(190,519,cs),
(99,519,o),
(13,469,o),
(13,374,cs),
(13,280,o),
(98,248,o),
(189,221,cs),
(301,189,o),
(331,162,o),
(331,117,cs),
(331,78,o),
(302,34,o),
(216,34,cs),
(136,34,o),
(73,68,o),
(29,114,c),
(17,111,l),
(17,9,l),
(78,-11,o),
(141,-22,o),
(189,-22,cs),
(304,-22,o),
(388,44,o),
(388,137,cs),
(388,218,o),
(329,263,o),
(221,294,cs)
);
}
);
width = 423;
}
);
metricLeft = n;
unicode = 115;
},
{
glyphname = t;
lastChange = "2023-08-28 20:08:16 +0000";
layers = (
{
anchors = (
{
name = bottom;
pos = (181,0);
},
{
name = bottom2;
pos = (226,0);
},
{
name = top3;
pos = (393,380);
}
);
layerId = m01;
shapes = (
{
closed = 1;
nodes = (
(116,525,o),
(72,499,o),
(13,490,c),
(13,462,l),
(80,462,l),
(80,163,l),
(80,52,o),
(127,-13,o),
(217,-13,cs),
(291,-13,o),
(323,21,o),
(354,67,c),
(337,82,l),
(312,53,o),
(281,37,o),
(244,37,cs),
(177,37,o),
(153,90,o),
(154,163,c),
(154,462,l),
(309,462,l),
(327,500,l),
(154,500,l),
(154,617,l),
(116,617,l)
);
}
);
width = 379;
}
);
metricLeft = n;
unicode = 116;
},
{
glyphname = u;
lastChange = "2023-08-28 20:06:38 +0000";
layers = (
{
anchors = (
{
name = bottom;
pos = (302,0);
},
{
name = ogonek;
pos = (571,29);
},
{
name = top;
pos = (302,500);
},
{
name = topright;
pos = (547,500);
}
);
guides = (
{
angle = 90;
pos = (102,220);
},
{
angle = 90;
pos = (501,220);
}
);
hints = (
{
name = _corner.origin;
options = 1;
origin = (1,15);
scale = (-1.1,1.05);
type = Corner;
},
{
name = _corner.origin2;
options = 1;
origin = (0,1);
scale = (-1.1,1.05);
type = Corner;
},
{
name = _corner.origin;
options = 1;
origin = (0,3);
scale = (-1,1);
type = Corner;
}
);
layerId = m01;
shapes = (
{
closed = 1;
nodes = (
(495,505,l),
(422,500,l),
(422,-5,l),
(495,0,l)
);
},
{
closed = 1;
nodes = (
(102,219,l),
(102,66,o),
(133,-16,o),
(252,-16,cs),
(378,-16,o),
(443,100,o),
(472,153,c),
(450,175,l),
(432,132,o),
(380,50,o),
(285,50,cs),
(180,50,o),
(176,128,o),
(176,219,c),
(176,505,l),
(102,500,l)
);
}
);
width = 590;
}
);
metricRight = d;
unicode = 117;
},
{
glyphname = v;
lastChange = "2023-08-28 20:08:06 +0000";
layers = (
{
anchors = (
{
name = bottom;
pos = (258,0);
},
{
name = top;
pos = (258,500);
}
);
hints = (
{
name = _corner.origin;
origin = (0,0);
scale = (0.6,0.9);
type = Corner;
},
{
name = _corner.origin;
options = 1;
origin = (0,1);
scale = (-1.3,1.1);
type = Corner;
},
{
name = _corner.origin;
origin = (0,4);
scale = (1.3,1.1);
type = Corner;
},
{
name = _corner.origin;
options = 1;
origin = (0,5);
scale = (0.6,-0.9);
type = Corner;
}
);
layerId = m01;
shapes = (
{
closed = 1;
nodes = (
(479,500,l),
(437,500,l),
(280,106,l),
(288,106,l),
(131,500,l),
(48,500,l),
(255,-13,l),
(275,-13,l)
);
}
);
width = 515;
}
);
unicode = 118;
},
{
glyphname = w;
lastChange = "2023-08-28 20:08:09 +0000";
layers = (
{
anchors = (
{
name = bottom;
pos = (426,0);
},
{
name = top;
pos = (426,500);
}
);
hints = (
{
name = _corner.origin;
origin = (0,4);
scale = (1.3,1.1);
type = Corner;
},
{
name = _corner.origin;
options = 1;
origin = (0,5);
scale = (0.6,-0.9);
type = Corner;
},
{
name = _corner.origin;
origin = (1,0);
scale = (0.6,0.9);
type = Corner;
},
{
name = _corner.origin;
options = 1;
origin = (1,1);
scale = (-1.3,1.1);
type = Corner;
},
{
name = _corner.origin;
origin = (1,4);
scale = (1.3,1.1);
type = Corner;
},
{
name = _corner.origin;
options = 1;
origin = (1,5);
scale = (0.6,-0.9);
type = Corner;
}
);
layerId = m01;
shapes = (
{
closed = 1;
nodes = (
(425,380,l),
(405,431,l),
(275,106,l),
(283,106,l),
(126,500,l),
(43,500,l),
(250,-13,l),
(270,-13,l)
);
},
{
closed = 1;
nodes = (
(762,500,l),
(720,500,l),
(563,106,l),
(571,106,l),
(414,500,l),
(331,500,l),
(538,-13,l),
(558,-13,l)
);
}
);
width = 826;
}
);
unicode = 119;
},
{
color = 6;
glyphname = x;
lastChange = "2023-08-27 13:03:38 +0000";
layers = (
{
guides = (
{
angle = 90;
pos = (11,255);
}
);
layerId = m01;
shapes = (
{
closed = 1;
nodes = (
(351,70,ls),
(368,47,o),
(370,22,o),
(365,0,c),
(520,0,l),
(524,13,l),
(498,23,o),
(471,40,o),
(449,70,c),
(178,430,l),
(161,453,o),
(160,478,o),
(167,500,c),
(14,500,l),
(10,487,l),
(39,475,o),
(65,455,o),
(85,430,c)
);
},
{
closed = 1;
nodes = (
(254,270,l),
(285,241,l),
(455,442,l),
(473,460,o),
(493,479,o),
(520,491,c),
(517,500,l),
(388,500,l),
(384,491,l),
(397,475,o),
(402,455,o),
(388,435,c)
);
},
{
closed = 1;
nodes = (
(58,39,o),
(38,20,o),
(11,8,c),
(14,-1,l),
(143,-1,l),
(147,8,l),
(134,24,o),
(129,44,o),
(143,64,c),
(278,229,l),
(246,259,l),
(76,57,l)
);
}
);
width = 534;
}
);
unicode = 120;
},
{
glyphname = y;
lastChange = "2023-08-28 20:08:11 +0000";
layers = (
{
anchors = (
{
name = bottom;
pos = (252,0);
},
{
name = top;
pos = (273,500);
}
);
guides = (
{
angle = 68.2946;
pos = (307,56);
},
{
angle = 68.2946;
pos = (285,106);
}
);
hints = (
{
name = _corner.origin;
origin = (0,18);
scale = (1.3,1.1);
type = Corner;
},
{
name = _corner.origin;
options = 1;
origin = (0,19);
scale = (0.6,-0.9);
type = Corner;
},
{
name = _corner.origin;
options = 1;
origin = (0,15);
scale = (-1.3,1.1);
type = Corner;
},
{
name = _corner.origin;
origin = (0,14);
scale = (0.6,0.9);
type = Corner;
}
);
layerId = m01;
shapes = (
{
closed = 1;
nodes = (
(189,-111,o),
(171,-140,o),
(138,-152,cs),
(111,-162,o),
(80,-158,o),
(55,-146,c),
(17,-202,l),
(23,-212,l),
(58,-230,o),
(103,-235,o),
(143,-217,cs),
(206,-190,o),
(225,-126,o),
(241,-86,cs),
(474,500,l),
(432,500,l),
(275,106,l),
(283,106,l),
(126,500,l),
(43,500,l),
(239,14,l),
(206,-69,ls)
);
}
);
width = 503;
}
);
unicode = 121;
},
{
color = 6;
glyphname = z;
lastChange = "2023-08-27 13:03:38 +0000";
layers = (
{
anchors = (
{
name = top;
pos = (251,500);
}
);
layerId = m01;
shapes = (
{
closed = 1;
nodes = (
(104,11,l),
(469,463,l),
(469,501,l),
(49,501,l),
(49,368,l),
(62,364,l),
(72,396,o),
(90,420,o),
(111,435,cs),
(138,454,o),
(172,459,o),
(204,459,cs),
(417,459,l),
(397,489,l),
(33,43,l),
(33,0,l),
(477,0,l),
(477,138,l),
(464,142,l),
(455,118,o),
(442,93,o),
(420,75,cs),
(395,55,o),
(364,47,o),
(322,47,cs),
(90,47,l)
);
}
);
width = 510;
}
);
unicode = 122;
},
{
color = 6;
glyphname = zero;
lastChange = "2023-08-27 13:03:03 +0000";
layers = (
{
guides = (
{
locked = 1;
pos = (309,812);
},
{
locked = 1;
pos = (309,-22);
}
);
layerId = m01;
shapes = (
{
closed = 1;
nodes = (
(479,-22,o),
(584,128,o),
(584,395,cs),
(584,652,o),
(485,812,o),
(310,812,cs),
(140,812,o),
(35,662,o),
(35,395,cs),
(35,138,o),
(134,-22,o),
(310,-22,cs)
);
},
{
closed = 1;
nodes = (
(195,23,o),
(134,160,o),
(134,395,cs),
(134,637,o),
(199,767,o),
(310,767,cs),
(424,767,o),
(485,629,o),
(485,395,cs),
(485,153,o),
(420,23,o),
(310,23,cs)
);
}
);
width = 600;
}
);
unicode = 48;
},
{
color = 6;
glyphname = one;
lastChange = "2023-08-27 13:03:03 +0000";
layers = (
{
guides = (
{
locked = 1;
pos = (171,800);
},
{
pos = (171,800);
},
{
locked = 1;
pos = (174,0);
}
);
layerId = m01;
shapes = (
{
closed = 1;
nodes = (
(120,45,o),
(98,25,o),
(55,10,c),
(58,0,l),
(261,0,l),
(265,10,l),
(224,25,o),
(200,46,o),
(200,89,c),
(200,800,l),
(181,800,l),
(170,781,o),
(157,770,o),
(137,764,cs),
(127,760,o),
(110,758,o),
(88,758,c),
(30,758,l),
(30,737,l),
(88,737,l),
(107,737,o),
(120,729,o),
(120,708,c),
(120,89,l)
);
}
);
width = 281;
}
);
unicode = 49;
},
{
glyphname = two;
lastChange = "2023-08-27 13:02:59 +0000";
layers = (
{
guides = (
{
locked = 1;
pos = (275,812);
},
{
locked = 1;
pos = (307,0);
}
);
layerId = m01;
shapes = (
{
closed = 1;
nodes = (
(31,17,l),
(31,0,l),
(501,0,l),
(506,174,l),
(492,179,l),
(477,142,o),
(459,111,o),
(427,88,cs),
(401,69,o),
(369,65,o),
(329,65,c),
(112,65,l),
(407,467,l),
(439,517,o),
(469,580,o),
(469,635,cs),
(469,700,o),
(426,814,o),
(272,814,cs),
(148,814,o),
(89,736,o),
(43,639,c),
(60,631,l),
(114,727,o),
(179,754,o),
(250,754,cs),
(319,754,o),
(375,700,o),
(375,636,cs),
(375,575,o),
(353,517,o),
(302,428,c)
);
}
);
width = 536;
}
);
unicode = 50;
},
{
color = 6;
glyphname = three;
lastChange = "2023-08-27 13:03:09 +0000";
layers = (
{
guides = (
{
locked = 1;
pos = (262,812);
}
);
layerId = m01;
shapes = (
{
closed = 1;
nodes = (
(427,461,o),
(469,580,o),
(469,635,cs),
(469,700,o),
(431,814,o),
(277,814,cs),
(158,814,o),
(104,736,o),
(58,639,c),
(75,631,l),
(129,727,o),
(189,754,o),
(255,754,cs),
(324,754,o),
(375,700,o),
(375,636,cs),
(375,575,o),
(355,481,o),
(187,422,c),
(187,397,l),
(273,394,o),
(331,375,o),
(376,341,cs),
(415,311,o),
(437,264,o),
(437,199,cs),
(437,118,o),
(375,32,o),
(282,32,cs),
(168,32,o),
(118,90,o),
(66,160,c),
(52,157,l),
(52,40,l),
(118,1,o),
(208,-13,o),
(262,-13,cs),
(426,-13,o),
(518,98,o),
(518,206,cs),
(518,270,o),
(493,324,o),
(452,362,cs),
(411,400,o),
(347,420,o),
(273,423,c)
);
}
);
width = 538;
}
);
unicode = 51;
},
{
color = 6;
glyphname = four;
lastChange = "2023-08-27 13:03:09 +0000";
layers = (
{
layerId = m01;
shapes = (
{
closed = 1;
nodes = (
(46,248,l),
(402,729,l),
(375,729,l),
(375,89,l),
(375,45,o),
(363,25,o),
(320,10,c),
(323,0,l),
(506,0,l),
(510,10,l),
(469,25,o),
(455,46,o),
(455,89,c),
(455,800,l),
(436,800,l),
(425,781,o),
(403,767,o),
(375,764,c),
(10,271,l),
(10,228,l),
(590,228,l),
(590,271,l),
(29,271,l)
);
}
);
width = 610;
}
);
unicode = 52;
},
{
color = 6;
glyphname = five;
lastChange = "2023-08-27 13:03:09 +0000";
layers = (
{
layerId = m01;
shapes = (
{
closed = 1;
nodes = (
(77,417,l),
(232,417,o),
(313,405,o),
(371,361,cs),
(410,331,o),
(437,296,o),
(437,205,cs),
(437,124,o),
(375,32,o),
(282,32,cs),
(168,32,o),
(118,90,o),
(66,160,c),
(52,157,l),
(52,40,l),
(118,1,o),
(208,-13,o),
(262,-13,cs),
(426,-13,o),
(518,90,o),
(518,212,cs),
(518,292,o),
(499,344,o),
(457,382,cs),
(394,440,o),
(309,451,o),
(116,451,c),
(150,689,l),
(480,689,l),
(490,825,l),
(476,830,l),
(441,780,o),
(386,763,o),
(315,763,c),
(128,763,l)
);
}
);
width = 600;
}
);
unicode = 53;
},
{
color = 6;
glyphname = six;
lastChange = "2023-08-27 13:03:09 +0000";
layers = (
{
layerId = m01;
shapes = (
{
closed = 1;
nodes = (
(107,357,l),
(142,424,o),
(213,459,o),
(303,459,cs),
(416,459,o),
(482,377,o),
(482,265,cs),
(482,153,o),
(410,23,o),
(300,23,cs),
(185,23,o),
(121,150,o),
(121,330,cs),
(121,686,o),
(376,788,o),
(540,788,c),
(540,825,l),
(323,825,o),
(33,700,o),
(33,330,cs),
(33,128,o),
(124,-22,o),
(300,-22,cs),
(469,-22,o),
(568,128,o),
(568,265,cs),
(568,402,o),
(484,518,o),
(323,518,cs),
(226,518,o),
(124,477,o),
(77,378,c)
);
}
);
width = 600;
}
);
unicode = 54;
},
{
glyphname = seven;
lastChange = "2023-08-27 13:02:49 +0000";
layers = (
{
guides = (
{
pos = (35,783);
}
);
layerId = m01;
shapes = (
{
closed = 1;
nodes = (
(200,709,l),
(129,709,o),
(74,692,o),
(39,642,c),
(25,647,l),
(35,783,l),
(555,783,l),
(269,0,l),
(197,0,l),
(481,709,l)
);
}
);
width = 600;
}
);
unicode = 55;
},
{
color = 6;
glyphname = eight;
lastChange = "2023-08-27 13:03:12 +0000";
layers = (
{
layerId = m01;
shapes = (
{
closed = 1;
nodes = (
(434,440,o),
(540,530,o),
(540,631,cs),
(540,745,o),
(441,814,o),
(309,814,cs),
(149,814,o),
(70,706,o),
(70,606,cs),
(70,497,o),
(169,440,o),
(302,397,cs),
(465,344,o),
(497,267,o),
(497,207,cs),
(497,108,o),
(426,24,o),
(311,24,cs),
(171,24,o),
(115,134,o),
(115,207,cs),
(115,327,o),
(201,415,o),
(297,415,c),
(297,452,l),
(138,452,o),
(29,326,o),
(29,207,cs),
(29,69,o),
(146,-12,o),
(300,-12,cs),
(485,-12,o),
(582,116,o),
(582,235,cs),
(582,356,o),
(506,429,o),
(356,477,cs),
(223,519,o),
(141,571,o),
(141,650,cs),
(141,727,o),
(200,783,o),
(300,783,cs),
(422,783,o),
(467,690,o),
(467,631,cs),
(467,530,o),
(391,477,o),
(322,477,c),
(322,440,l)
);
}
);
width = 600;
}
);
unicode = 56;
},
{
color = 6;
glyphname = nine;
lastChange = "2023-08-27 13:03:12 +0000";
layers = (
{
layerId = m01;
shapes = (
{
closed = 1;
nodes = (
(503,491,l),
(476,400,o),
(400,344,o),
(310,344,cs),
(197,344,o),
(132,426,o),
(132,538,cs),
(132,650,o),
(203,780,o),
(313,780,cs),
(428,780,o),
(489,653,o),
(489,473,cs),
(489,117,o),
(257,15,o),
(93,15,c),
(93,-22,l),
(310,-22,o),
(584,103,o),
(584,473,cs),
(584,675,o),
(489,825,o),
(313,825,cs),
(144,825,o),
(43,675,o),
(43,538,cs),
(43,401,o),
(129,285,o),
(290,285,cs),
(387,285,o),
(501,335,o),
(542,478,c)
);
}
);
width = 600;
}
);
unicode = 57;
},
{
glyphname = period;
lastChange = "2023-05-01 14:29:03 +0000";
layers = (
{
layerId = m01;
shapes = (
{
closed = 1;
nodes = (
(94,0,o),
(118,24,o),
(118,54,cs),
(118,84,o),
(94,108,o),
(64,108,cs),
(34,108,o),
(10,84,o),
(10,54,cs),
(10,24,o),
(34,0,o),
(64,0,cs)
);
}
);
width = 128;
}
);
unicode = 46;
},
{
glyphname = comma;
lastChange = "2023-06-07 20:56:54 +0000";
layers = (
{
layerId = m01;
shapes = (
{
closed = 1;
nodes = (
(120,72,o),
(100,97,o),
(70,97,cs),
(39,97,o),
(19,75,o),
(19,45,cs),
(19,20,o),
(46,5,o),
(46,-25,cs),
(46,-49,o),
(22,-66,o),
(7,-76,c),
(19,-93,l),
(71,-70,o),
(120,-23,o),
(120,42,cs)
);
}
);
width = 128;
}
);
unicode = 44;
},
{
glyphname = hyphen;
lastChange = "2023-05-01 17:23:19 +0000";
layers = (
{
guides = (
{
locked = 1;
pos = (138,249);
},
{
angle = 90;
locked = 1;
pos = (276,327);
}
);
layerId = m01;
shapes = (
{
closed = 1;
nodes = (
(12,259,l),
(266,259,l),
(266,314,l),
(12,314,l)
);
}
);
width = 278;
}
);
unicode = 45;
},
{
color = 9;
glyphname = dieresiscomb;
lastChange = "2023-05-15 10:50:43 +0000";
layers = (
{
anchors = (
{
name = _top;
pos = (274,500);
},
{
name = _top2;
pos = (274,555);
}
);
layerId = m01;
shapes = (
{
closed = 1;
nodes = (
(213,611,o),
(237,634,o),
(237,662,cs),
(237,690,o),
(213,713,o),
(183,713,cs),
(153,713,o),
(129,690,o),
(129,662,cs),
(129,634,o),
(153,611,o),
(183,611,cs)
);
},
{
closed = 1;
nodes = (
(399,611,o),
(424,634,o),
(424,662,cs),
(424,690,o),
(399,713,o),
(370,713,cs),
(341,713,o),
(316,690,o),
(316,662,cs),
(316,634,o),
(341,611,o),
(370,611,cs)
);
}
);
width = 553;
}
);
unicode = 776;
},
{
color = 9;
glyphname = dotaccentcomb;
lastChange = "2023-05-15 13:44:45 +0000";
layers = (
{
anchors = (
{
name = _top;
pos = (102,500);
},
{
name = _top2;
pos = (102,555);
}
);
layerId = m01;
shapes = (
{
closed = 1;
nodes = (
(132,608,o),
(156,632,o),
(156,662,cs),
(156,692,o),
(132,716,o),
(102,716,cs),
(72,716,o),
(48,692,o),
(48,662,cs),
(48,632,o),
(72,608,o),
(102,608,cs)
);
}
);
width = 202;
}
);
unicode = 775;
},
{
color = 9;
glyphname = gravecomb;
lastChange = "2023-05-15 13:44:56 +0000";
layers = (
{
anchors = (
{
name = _top;
pos = (274,500);
},
{
name = _top2;
pos = (274,555);
}
);
layerId = m01;
shapes = (
{
closed = 1;
nodes = (
(140,730,l),
(351,597,l),
(378,627,l),
(213,776,l),
(143,741,l)
);
}
);
width = 600;
}
);
unicode = 768;
},
{
color = 9;
glyphname = acutecomb;
lastChange = "2023-05-15 13:42:45 +0000";
layers = (
{
anchors = (
{
name = _top;
pos = (234,500);
},
{
name = _top2;
pos = (234,555);
}
);
layerId = m01;
shapes = (
{
closed = 1;
nodes = (
(305,776,l),
(140,627,l),
(167,597,l),
(378,730,l),
(375,741,l)
);
}
);
width = 518;
}
);
unicode = 769;
},
{
color = 9;
glyphname = hungarumlautcomb;
lastChange = "2023-05-15 14:32:13 +0000";
layers = (
{
anchors = (
{
name = _top;
pos = (228,500);
},
{
name = _top2;
pos = (228,555);
}
);
layerId = m01;
shapes = (
{
closed = 1;
nodes = (
(301,755,l),
(120,597,l),
(93,627,l),
(228,801,l),
(298,766,l)
);
},
{
closed = 1;
nodes = (
(478,756,l),
(297,598,l),
(270,628,l),
(405,802,l),
(475,767,l)
);
}
);
width = 600;
}
);
unicode = 779;
},
{
color = 9;
glyphname = caroncomb.alt;
lastChange = "2023-05-23 21:24:35 +0000";
layers = (
{
anchors = (
{
name = _top3;
pos = (288,500);
}
);
layerId = m01;
shapes = (
{
closed = 1;
nodes = (
(354,793,o),
(336,815,o),
(309,815,cs),
(283,815,o),
(265,797,o),
(265,770,cs),
(265,748,o),
(288,734,o),
(288,708,cs),
(288,687,o),
(267,671,o),
(254,662,c),
(265,648,l),
(311,668,o),
(354,710,o),
(354,767,cs)
);
}
);
width = 600;
}
);
},
{
color = 9;
glyphname = circumflexcomb;
lastChange = "2023-05-15 13:47:15 +0000";
layers = (
{
anchors = (
{
name = _top;
pos = (274,500);
},
{
name = _top2;
pos = (273,555);
}
);
layerId = m01;
shapes = (
{
closed = 1;
nodes = (
(136,597,l),
(198,597,l),
(283,729,l),
(262,729,l),
(347,597,l),
(408,597,l),
(415,607,l),
(280,776,l),
(265,776,l),
(129,607,l)
);
}
);
width = 544;
}
);
unicode = 770;
},
{
color = 9;
glyphname = caroncomb;
lastChange = "2023-05-20 15:00:18 +0000";
layers = (
{
anchors = (
{
name = _top;
pos = (293,500);
},
{
name = _top2;
pos = (293,555);
}
);
layerId = m01;
shapes = (
{
closed = 1;
nodes = (
(285,597,l),
(300,597,l),
(435,766,l),
(428,776,l),
(367,776,l),
(282,644,l),
(303,644,l),
(218,776,l),
(156,776,l),
(149,766,l)
);
}
);
width = 584;
}
);
unicode = 780;
},
{
color = 9;
glyphname = brevecomb;
lastChange = "2023-05-15 13:49:26 +0000";
layers = (
{
anchors = (
{
name = _top;
pos = (292,500);
},
{
name = _top2;
pos = (292,555);
}
);
guides = (
{
angle = 90;
pos = (292,603);
}
);
layerId = m01;
shapes = (
{
closed = 1;
nodes = (
(251,667,o),
(221,707,o),
(204,770,c),
(181,766,l),
(186,691,o),
(212,612,o),
(292,612,cs),
(372,612,o),
(398,691,o),
(403,766,c),
(380,770,l),
(363,707,o),
(333,667,o),
(292,667,cs)
);
}
);
width = 584;
}
);
unicode = 774;
},
{
color = 9;
glyphname = ringcomb;
lastChange = "2023-05-29 20:18:37 +0000";
layers = (
{
anchors = (
{
name = _top;
pos = (233,500);
},
{
name = _top2;
pos = (233,513);
}
);
guides = (
{
angle = 90;
pos = (233,561);
}
);
layerId = m01;
shapes = (
{
closed = 1;
nodes = (
(318,717,o),
(279,748,o),
(233,748,cs),
(178,748,o),
(145,700,o),
(145,654,cs),
(145,603,o),
(186,572,o),
(231,572,cs),
(285,572,o),
(318,621,o),
(318,665,cs)
);
},
{
closed = 1;
nodes = (
(280,615,o),
(260,592,o),
(233,592,cs),
(200,592,o),
(183,630,o),
(183,665,cs),
(183,705,o),
(203,728,o),
(231,728,cs),
(263,728,o),
(280,690,o),
(280,654,cs)
);
}
);
width = 463;
}
);
unicode = 778;
},
{
color = 9;
glyphname = tildecomb;
lastChange = "2023-05-15 14:29:23 +0000";
layers = (
{
anchors = (
{
name = _top;
pos = (265,500);
},
{
name = _top2;
pos = (265,555);
}
);
layerId = m01;
shapes = (
{
closed = 1;
nodes = (
(158,644,o),
(195,640,o),
(223,630,c),
(277,611,l),
(332,591,o),
(402,601,o),
(432,681,c),
(399,697,l),
(379,656,o),
(339,657,o),
(310,668,c),
(255,687,l),
(201,706,o),
(123,689,o),
(102,609,c),
(138,593,l)
);
}
);
width = 534;
}
);
unicode = 771;
},
{
color = 9;
glyphname = macroncomb;
lastChange = "2023-05-15 19:55:17 +0000";
layers = (
{
anchors = (
{
name = _top;
pos = (265,500);
},
{
name = _top2;
pos = (265,555);
}
);
layerId = m01;
shapes = (
{
closed = 1;
nodes = (
(120,614,l),
(414,614,l),
(414,669,l),
(120,669,l)
);
}
);
width = 600;
}
);
unicode = 772;
},
{
color = 9;
glyphname = commaturnedabovecomb;
lastChange = "2023-05-29 21:37:01 +0000";
layers = (
{
anchors = (
{
name = _top;
pos = (249,500);
}
);
layerId = m01;
shapes = (
{
closed = 1;
nodes = (
(202,579,o),
(220,554,o),
(250,554,cs),
(281,554,o),
(299,576,o),
(299,606,cs),
(299,636,o),
(274,643,o),
(274,668,cs),
(274,692,o),
(298,703,o),
(313,713,c),
(301,730,l),
(249,707,o),
(202,674,o),
(202,609,cs)
);
}
);
width = 600;
}
);
unicode = 786;
},
{
color = 9;
glyphname = commaaccentcomb;
lastChange = "2023-05-21 12:47:48 +0000";
layers = (
{
anchors = (
{
name = _bottom2;
pos = (73,12);
}
);
layerId = m01;
shapes = (
{
closed = 1;
nodes = (
(120,-61,o),
(102,-36,o),
(72,-36,cs),
(41,-36,o),
(23,-58,o),
(23,-88,cs),
(23,-118,o),
(48,-125,o),
(48,-150,cs),
(48,-174,o),
(24,-185,o),
(9,-195,c),
(21,-212,l),
(73,-189,o),
(120,-156,o),
(120,-91,cs)
);
}
);
width = 135;
}
);
unicode = 806;
},
{
color = 9;
glyphname = cedillacomb;
lastChange = "2023-05-15 13:38:33 +0000";
layers = (
{
anchors = (
{
name = _bottom;
pos = (187,-7);
}
);
layerId = m01;
shapes = (
{
closed = 1;
nodes = (
(141,-223,o),
(167,-235,o),
(201,-235,cs),
(271,-235,o),
(293,-185,o),
(293,-154,cs),
(293,-115,o),
(257,-97,o),
(219,-97,c),
(268,2,l),
(207,2,l),
(156,-126,l),
(161,-131,l),
(203,-115,o),
(250,-129,o),
(250,-160,cs),
(250,-185,o),
(233,-203,o),
(201,-203,cs),
(177,-203,o),
(154,-191,o),
(139,-175,c),
(129,-210,l)
);
}
);
width = 422;
}
);
unicode = 807;
},
{
color = 9;
glyphname = ogonekcomb;
lastChange = "2023-05-15 20:06:04 +0000";
layers = (
{
anchors = (
{
name = _ogonek;
pos = (436,2);
}
);
layerId = m01;
shapes = (
{
closed = 1;
nodes = (
(259,-15,o),
(218,-62,o),
(218,-118,cs),
(218,-155,o),
(237,-216,o),
(330,-216,cs),
(375,-216,o),
(420,-181,o),
(436,-164,c),
(415,-134,l),
(395,-157,o),
(367,-172,o),
(331,-172,cs),
(300,-172,o),
(271,-146,o),
(271,-108,cs),
(271,-75,o),
(289,-43,o),
(343,-13,c),
(368,2,l),
(324,2,l)
);
}
);
width = 600;
}
);
unicode = 808;
},
{
color = 9;
glyphname = acutecomb.loclPLK;
lastChange = "2023-05-15 13:38:49 +0000";
layers = (
{
anchors = (
{
name = _top;
pos = (160,500);
},
{
name = _top3;
pos = (160,540);
}
);
layerId = m01;
shapes = (
{
closed = 1;
nodes = (
(187,761,l),
(140,590,l),
(187,590,l),
(268,750,l),
(265,761,l)
);
}
);
width = 408;
}
);
},
{
color = 9;
glyphname = dieresis;
lastChange = "2023-05-15 10:37:28 +0000";
layers = (
{
anchors = (
{
name = _top;
pos = (274,500);
},
{
name = _top2;
pos = (274,555);
}
);
layerId = m01;
shapes = (
{
closed = 1;
nodes = (
(213,611,o),
(237,634,o),
(237,662,cs),
(237,690,o),
(213,713,o),
(183,713,cs),
(153,713,o),
(129,690,o),
(129,662,cs),
(129,634,o),
(153,611,o),
(183,611,cs)
);
},
{
closed = 1;
nodes = (
(399,611,o),
(424,634,o),
(424,662,cs),
(424,690,o),
(399,713,o),
(370,713,cs),
(341,713,o),
(316,690,o),
(316,662,cs),
(316,634,o),
(341,611,o),
(370,611,cs)
);
}
);
width = 553;
}
);
unicode = 168;
},
{
color = 9;
glyphname = dotaccent;
lastChange = "2023-05-15 10:42:32 +0000";
layers = (
{
anchors = (
{
name = _top;
pos = (102,500);
}
);
layerId = m01;
shapes = (
{
closed = 1;
nodes = (
(132,608,o),
(156,632,o),
(156,662,cs),
(156,692,o),
(132,716,o),
(102,716,cs),
(72,716,o),
(48,692,o),
(48,662,cs),
(48,632,o),
(72,608,o),
(102,608,cs)
);
}
);
width = 202;
}
);
unicode = 729;
},
{
color = 9;
glyphname = grave;
lastChange = "2023-05-15 13:39:00 +0000";
layers = (
{
anchors = (
{
name = _top;
pos = (274,500);
}
);
layerId = m01;
shapes = (
{
closed = 1;
nodes = (
(140,730,l),
(351,597,l),
(378,627,l),
(213,776,l),
(143,741,l)
);
}
);
width = 600;
}
);
unicode = 96;
},
{
color = 9;
glyphname = acute;
lastChange = "2023-05-15 13:39:10 +0000";
layers = (
{
anchors = (
{
name = _top;
pos = (274,500);
}
);
layerId = m01;
shapes = (
{
closed = 1;
nodes = (
(305,776,l),
(140,627,l),
(167,597,l),
(378,730,l),
(375,741,l)
);
}
);
width = 518;
}
);
unicode = 180;
},
{
color = 9;
glyphname = hungarumlaut;
lastChange = "2023-05-15 13:39:31 +0000";
layers = (
{
anchors = (
{
name = _top;
pos = (274,500);
}
);
guides = (
{
pos = (116,597);
}
);
layerId = m01;
shapes = (
{
closed = 1;
nodes = (
(228,801,l),
(93,627,l),
(120,597,l),
(301,755,l),
(298,766,l)
);
},
{
closed = 1;
nodes = (
(405,802,l),
(270,628,l),
(297,598,l),
(478,756,l),
(475,767,l)
);
}
);
width = 600;
}
);
unicode = 733;
},
{
color = 9;
glyphname = circumflex;
lastChange = "2023-05-15 13:39:37 +0000";
layers = (
{
anchors = (
{
name = _top;
pos = (274,500);
}
);
guides = (
{
locked = 1;
pos = (272,776);
},
{
locked = 1;
pos = (277,597);
},
{
locked = 1;
pos = (195,608);
}
);
layerId = m01;
shapes = (
{
closed = 1;
nodes = (
(136,597,l),
(198,597,l),
(283,729,l),
(262,729,l),
(347,597,l),
(408,597,l),
(415,607,l),
(280,776,l),
(265,776,l),
(129,607,l)
);
}
);
width = 544;
}
);
unicode = 710;
},
{
color = 9;
glyphname = caron;
lastChange = "2023-05-15 13:48:32 +0000";
layers = (
{
anchors = (
{
name = _top;
pos = (293,500);
},
{
name = _top2;
pos = (293,555);
}
);
guides = (
{
angle = 90;
pos = (293,581);
}
);
layerId = m01;
shapes = (
{
closed = 1;
nodes = (
(285,597,l),
(300,597,l),
(435,766,l),
(428,776,l),
(367,776,l),
(282,644,l),
(303,644,l),
(218,776,l),
(156,776,l),
(149,766,l)
);
}
);
width = 584;
}
);
unicode = 711;
},
{
color = 9;
glyphname = breve;
lastChange = "2023-05-15 13:39:58 +0000";
layers = (
{
anchors = (
{
name = _top;
pos = (292,500);
}
);
guides = (
{
angle = 90;
pos = (292,636);
},
{
locked = 1;
pos = (292,675);
}
);
layerId = m01;
shapes = (
{
closed = 1;
nodes = (
(251,667,o),
(221,707,o),
(204,770,c),
(181,766,l),
(186,691,o),
(212,612,o),
(292,612,cs),
(372,612,o),
(398,691,o),
(403,766,c),
(380,770,l),
(363,707,o),
(333,667,o),
(292,667,cs)
);
}
);
width = 584;
}
);
unicode = 728;
},
{
color = 9;
glyphname = ring;
lastChange = "2023-05-15 10:51:54 +0000";
layers = (
{
anchors = (
{
name = _top;
pos = (231,500);
}
);
guides = (
{
pos = (263,792);
},
{
pos = (263,600);
}
);
layerId = m01;
shapes = (
{
closed = 1;
nodes = (
(318,757,o),
(279,788,o),
(233,788,cs),
(178,788,o),
(145,740,o),
(145,694,cs),
(145,643,o),
(186,612,o),
(231,612,cs),
(285,612,o),
(318,661,o),
(318,705,cs)
);
},
{
closed = 1;
nodes = (
(280,655,o),
(260,632,o),
(233,632,cs),
(200,632,o),
(183,670,o),
(183,705,cs),
(183,745,o),
(203,768,o),
(231,768,cs),
(263,768,o),
(280,730,o),
(280,694,cs)
);
}
);
width = 463;
}
);
unicode = 730;
},
{
color = 9;
glyphname = tilde;
lastChange = "2023-05-15 10:51:02 +0000";
layers = (
{
anchors = (
{
name = _top;
pos = (265,500);
}
);
guides = (
{
locked = 1;
pos = (289,628);
},
{
locked = 1;
pos = (296,767);
},
{
angle = 90;
locked = 1;
pos = (120,739);
},
{
angle = 90;
locked = 1;
pos = (414,749);
}
);
layerId = m01;
shapes = (
{
closed = 1;
nodes = (
(158,644,o),
(195,640,o),
(223,630,c),
(277,611,l),
(332,591,o),
(402,601,o),
(432,681,c),
(399,697,l),
(379,656,o),
(339,657,o),
(310,668,c),
(255,687,l),
(201,706,o),
(123,689,o),
(102,609,c),
(138,593,l)
);
}
);
width = 534;
}
);
unicode = 732;
},
{
color = 9;
glyphname = macron;
lastChange = "2023-05-15 19:56:06 +0000";
layers = (
{
anchors = (
{
name = _top;
pos = (265,500);
}
);
guides = (
{
pos = (446,717);
},
{
pos = (446,662);
}
);
layerId = m01;
shapes = (
{
closed = 1;
nodes = (
(120,614,l),
(414,614,l),
(414,669,l),
(120,669,l)
);
}
);
width = 534;
}
);
unicode = 175;
},
{
color = 9;
glyphname = cedilla;
lastChange = "2023-05-15 13:40:20 +0000";
layers = (
{
anchors = (
{
name = _bottom;
pos = (187,-7);
}
);
layerId = m01;
shapes = (
{
closed = 1;
nodes = (
(141,-223,o),
(167,-235,o),
(201,-235,cs),
(271,-235,o),
(293,-185,o),
(293,-154,cs),
(293,-115,o),
(257,-97,o),
(219,-97,c),
(268,2,l),
(207,2,l),
(156,-126,l),
(161,-131,l),
(203,-115,o),
(250,-129,o),
(250,-160,cs),
(250,-185,o),
(233,-203,o),
(201,-203,cs),
(177,-203,o),
(154,-191,o),
(139,-175,c),
(129,-210,l)
);
}
);
width = 422;
}
);
unicode = 184;
},
{
color = 9;
glyphname = ogonek;
lastChange = "2023-05-15 13:40:28 +0000";
layers = (
{
anchors = (
{
name = _ogonek;
pos = (436,2);
}
);
layerId = m01;
shapes = (
{
closed = 1;
nodes = (
(259,-15,o),
(218,-62,o),
(218,-118,cs),
(218,-155,o),
(237,-216,o),
(330,-216,cs),
(375,-216,o),
(420,-181,o),
(436,-164,c),
(415,-134,l),
(395,-157,o),
(367,-172,o),
(331,-172,cs),
(300,-172,o),
(271,-146,o),
(271,-108,cs),
(271,-72,o),
(300,-29,o),
(367,2,c),
(324,2,l)
);
}
);
width = 600;
}
);
unicode = 731;
},
{
export = 0;
glyphname = _corner.origin;
lastChange = "2023-06-18 13:19:08 +0000";
layers = (
{
anchors = (
{
name = origin;
pos = (107,0);
},
{
name = side;
pos = (107,80);
}
);
guides = (
{
angle = 90;
pos = (107,183);
}
);
layerId = m01;
shapes = (
{
closed = 0;
nodes = (
(107,80,l),
(107,56,o),
(75,32,o),
(35,13,c),
(39,0,l),
(139,0,l)
);
}
);
width = 200;
}
);
},
